<svg width="92" height="65" viewBox="0 0 92 65" fill="none" xmlns="http://www.w3.org/2000/svg">
<g id="Group 19">
<path id="Stroke 74" d="M86.3567 7.45204L87.0588 7.4717L86.3567 7.45204ZM85.0846 60.4897L84.581 60.9794L84.581 60.9794L85.0846 60.4897ZM84.8861 59.9803L85.5882 60L84.8861 59.9803ZM86.3124 59.2326L85.6103 59.2129C85.6043 59.4246 85.6943 59.6277 85.855 59.7657C86.0158 59.9036 86.2302 59.9616 86.4386 59.9236L86.3124 59.2326ZM87.7392 8.27022L87.9363 7.59601C87.7273 7.53491 87.5018 7.57417 87.3258 7.7023C87.1498 7.83042 87.0431 8.03293 87.037 8.25057L87.7392 8.27022ZM61.4748 1.60975L62.0588 2V2L61.4748 1.60975ZM56.147 9.58328V10.2857C56.3816 10.2857 56.6007 10.1686 56.7311 9.97353L56.147 9.58328ZM82.1697 59.2976V60C82.4544 60 82.711 59.8281 82.8193 59.5647C82.9276 59.3013 82.8662 58.9986 82.6638 58.7983L82.1697 59.2976ZM62.4343 2.70244V2C62.1997 2 61.9806 2.11712 61.8502 2.31219L62.4343 2.70244ZM57.1065 10.676L56.5225 10.2857V10.2857L57.1065 10.676ZM87.0588 6.06682C86.2982 6.06682 85.6758 6.6721 85.6545 7.43238L87.0588 7.4717V6.06682ZM91.4049 10.2363C91.4049 7.85136 89.3725 6.06682 87.0588 6.06682V7.4717C88.6849 7.4717 90 8.71262 90 10.2363H91.4049ZM91.4049 55.853V10.2363H90V55.853H91.4049ZM85.5882 61.4049C88.7159 61.4049 91.4049 59.0018 91.4049 55.853H90C90 58.1419 88.0268 60 85.5882 60V61.4049ZM84.581 60.9794C84.8455 61.2514 85.2088 61.4049 85.5882 61.4049V60V60L84.581 60.9794ZM84.1839 59.9607C84.1733 60.34 84.3165 60.7074 84.581 60.9794L85.5882 60V60L84.1839 59.9607ZM85.6545 7.43238L84.1839 59.9607L85.5882 60L87.0588 7.4717L85.6545 7.43238ZM87.0146 59.2522L88.4413 8.28988L87.037 8.25057L85.6103 59.2129L87.0146 59.2522ZM88.5951 55.853C88.5951 57.1205 87.6156 58.2807 86.1863 58.5415L86.4386 59.9236C88.4664 59.5535 90 57.8669 90 55.853H88.5951ZM88.5951 10.2363V55.853H90V10.2363H88.5951ZM87.5421 8.94444C88.1963 9.13571 88.5951 9.68674 88.5951 10.2363H90C90 9.00167 89.1288 7.94466 87.9363 7.59601L87.5421 8.94444ZM62.0588 0.595122C61.5896 0.595122 61.1514 0.829361 60.8907 1.21949L62.0588 2V2V0.595122ZM78.6678 0.595122H62.0588V2H78.6678V0.595122ZM82.8409 4.7619C82.8409 2.45835 80.9686 0.595122 78.6678 0.595122V2C80.1959 2 81.436 3.23743 81.436 4.7619H82.8409ZM82.8409 55.8571V4.7619H81.436V55.8571H82.8409ZM85.5882 58.5951C84.0678 58.5951 82.8409 57.3666 82.8409 55.8571H81.436C81.436 58.1453 83.2947 60 85.5882 60V58.5951ZM86.9931 60C86.9931 59.2241 86.3641 58.5951 85.5882 58.5951V60H86.9931ZM85.5882 61.4049C86.3641 61.4049 86.9931 60.7759 86.9931 60H85.5882V61.4049ZM21.9204 61.4049H85.5882V60H21.9204V61.4049ZM13.5951 53.0952C13.5951 57.6868 17.3245 61.4049 21.9204 61.4049V60C18.0975 60 15 56.908 15 53.0952H13.5951ZM13.5951 13.0476V53.0952H15V13.0476H13.5951ZM17.7682 8.88084C15.4673 8.88084 13.5951 10.7441 13.5951 13.0476H15C15 11.5231 16.24 10.2857 17.7682 10.2857V8.88084ZM56.147 8.88084H17.7682V10.2857H56.147V8.88084ZM60.8907 1.21949L55.563 9.19302L56.7311 9.97353L62.0588 2L60.8907 1.21949ZM80.0311 55.8571C80.0311 57.3982 80.6611 58.7928 81.6755 59.7968L82.6638 58.7983C81.9047 58.047 81.436 57.0076 81.436 55.8571H80.0311ZM80.0311 4.7619V55.8571H81.436V4.7619H80.0311ZM78.6678 3.40488C79.4228 3.40488 80.0311 4.01607 80.0311 4.7619H81.436C81.436 3.23749 80.196 2 78.6678 2V3.40488ZM62.4343 3.40488H78.6678V2H62.4343V3.40488ZM57.6906 11.0662L63.0183 3.09269L61.8502 2.31219L56.5225 10.2857L57.6906 11.0662ZM56.5225 11.6906C56.9917 11.6906 57.4299 11.4564 57.6906 11.0662L56.5225 10.2857V10.2857V11.6906ZM17.7682 11.6906H56.5225V10.2857H17.7682V11.6906ZM16.4049 13.0476C16.4049 12.3018 17.0132 11.6906 17.7682 11.6906V10.2857C16.24 10.2857 15 11.5232 15 13.0476H16.4049ZM16.4049 53.0952V13.0476H15V53.0952H16.4049ZM21.9204 58.5951C18.8707 58.5951 16.4049 56.1294 16.4049 53.0952H15C15 56.908 18.0975 60 21.9204 60V58.5951ZM82.1697 58.5951H21.9204V60H82.1697V58.5951Z" fill="#62E0D9"/>
<g id="Group 18">
<path id="Stroke 58" fill-rule="evenodd" clip-rule="evenodd" d="M41.2805 28.561V31.7621C41.2805 32.823 42.1215 33.6829 43.1591 33.6829H46.2899M48.7946 33.6829V33.4633C48.7946 32.784 48.531 32.1322 48.0614 31.652L43.2668 26.7504C42.7965 26.2702 42.1597 26 41.4953 26H27.5047C26.1215 26 25 27.1467 25 28.561V55.451C25 56.8653 26.1215 58.0119 27.5047 58.0119H46.2899C47.6731 58.0119 48.7946 56.8653 48.7946 55.451V46.4876" fill="#62E0D9"/>
<path id="Stroke 59" d="M45.9507 37.8838L45.6638 38.1645L45.6638 38.1645L45.9507 37.8838ZM49.7078 41.7253L49.4208 42.0059L49.4208 42.0059L49.7078 41.7253ZM49.7078 42.2866L49.4208 42.0059L49.4208 42.0059L49.7078 42.2866ZM37.8105 54.4511L38.0974 54.7318L38.0974 54.7318L37.8105 54.4511ZM33.4795 50.0484L33.1925 49.7677L33.1925 49.7677L33.4795 50.0484ZM45.3768 37.8838L45.6638 38.1645L45.6638 38.1645L45.3768 37.8838ZM34.1678 53.7691H33.7664C33.7664 53.9907 33.9462 54.1705 34.1678 54.1705V53.7691ZM34.1678 50.4927L33.8809 50.212C33.8075 50.287 33.7664 50.3878 33.7664 50.4927H34.1678ZM37.3546 53.7691V54.1705C37.4626 54.1705 37.5661 54.1269 37.6416 54.0497L37.3546 53.7691ZM48.8593 42.0059L49.1463 42.2866C49.2989 42.1306 49.2989 41.8813 49.1463 41.7253L48.8593 42.0059ZM45.6638 38.7386L45.9507 38.4579C45.8752 38.3807 45.7718 38.3372 45.6638 38.3372C45.5558 38.3372 45.4523 38.3807 45.3768 38.4579L45.6638 38.7386ZM49.9357 36.5259L50.2227 36.2452V36.2452L49.9357 36.5259ZM46.7049 36.5259L46.9919 36.8065L46.7049 36.5259ZM51.0359 37.6508L50.7489 37.9314L51.0359 37.6508ZM51.0359 40.9286L50.7489 40.648L51.0359 40.9286ZM49.7078 42.2866L49.4208 42.0059V42.0059L49.7078 42.2866ZM49.1338 42.2866L49.4208 42.0059L49.4208 42.0059L49.1338 42.2866ZM45.3768 38.4451L45.6638 38.1645V38.1645L45.3768 38.4451ZM45.3768 37.8838L45.0898 37.6032V37.6032L45.3768 37.8838ZM47.2788 37.0872L47.5658 37.3679L47.2788 37.0872ZM49.3618 37.0872L49.0748 37.3679V37.3679L49.3618 37.0872ZM46.2252 38.1645L45.9383 37.8838C45.7857 38.0398 45.7857 38.2891 45.9383 38.4451L46.2252 38.1645ZM49.4208 41.4319L49.1338 41.7125C49.2094 41.7897 49.3128 41.8332 49.4208 41.8332C49.5288 41.8332 49.6323 41.7897 49.7078 41.7125L49.4208 41.4319ZM50.462 40.3673L50.7489 40.648L50.462 40.3673ZM50.462 38.2121L50.7489 37.9314V37.9314L50.462 38.2121ZM46.2377 37.6032C46.0867 37.4487 45.8798 37.3617 45.6638 37.3617V38.1645L45.6638 38.1645L46.2377 37.6032ZM49.9947 41.4446L46.2377 37.6032L45.6638 38.1645L49.4208 42.0059L49.9947 41.4446ZM49.9947 42.5672C50.2999 42.2552 50.2999 41.7566 49.9947 41.4446L49.4208 42.0059V42.0059L49.9947 42.5672ZM38.0974 54.7318L49.9947 42.5672L49.4208 42.0059L37.5235 54.1705L38.0974 54.7318ZM37.5235 54.9732C37.7395 54.9732 37.9464 54.8862 38.0974 54.7318L37.5235 54.1705H37.5235V54.9732ZM33.7664 54.9732H37.5235V54.1705H33.7664V54.9732ZM32.9637 54.1705C32.9637 54.6138 33.3231 54.9732 33.7664 54.9732V54.1705H32.9637ZM32.9637 50.329V54.1705H33.7664V50.329H32.9637ZM33.1925 49.7677C33.0458 49.9177 32.9637 50.1192 32.9637 50.329H33.7664H33.7664L33.1925 49.7677ZM45.0898 37.6032L33.1925 49.7677L33.7664 50.329L45.6638 38.1645L45.0898 37.6032ZM45.6638 37.3617C45.4478 37.3617 45.2409 37.4487 45.0898 37.6032L45.6638 38.1645L45.6638 38.1645V37.3617ZM34.5692 53.7691V50.4927H33.7664V53.7691H34.5692ZM37.3546 53.3677H34.1678V54.1705H37.3546V53.3677ZM48.5724 41.7253L37.0677 53.4884L37.6416 54.0497L49.1463 42.2866L48.5724 41.7253ZM45.3768 39.0192L48.5724 42.2866L49.1463 41.7253L45.9507 38.4579L45.3768 39.0192ZM34.4548 50.7733L45.9507 39.0192L45.3768 38.4579L33.8809 50.212L34.4548 50.7733ZM50.2227 36.2452C49.1739 35.1729 47.4667 35.1729 46.4179 36.2452L46.9919 36.8065C47.7258 36.0562 48.9149 36.0562 49.6487 36.8065L50.2227 36.2452ZM51.3228 37.3701L50.2227 36.2452L49.6487 36.8065L50.7489 37.9314L51.3228 37.3701ZM51.3228 41.2093C52.3619 40.1469 52.3619 38.4325 51.3228 37.3701L50.7489 37.9314C51.4828 38.6818 51.4828 39.8976 50.7489 40.648L51.3228 41.2093ZM49.9947 42.5672L51.3228 41.2093L50.7489 40.648L49.4208 42.0059L49.9947 42.5672ZM49.4208 42.8087C49.6368 42.8087 49.8437 42.7217 49.9947 42.5672L49.4208 42.0059L49.4208 42.0059V42.8087ZM48.8469 42.5672C48.9979 42.7217 49.2048 42.8087 49.4208 42.8087V42.0059V42.0059L48.8469 42.5672ZM45.0898 38.7258L48.8469 42.5672L49.4208 42.0059L45.6638 38.1645L45.0898 38.7258ZM45.0898 37.6032C44.7847 37.9152 44.7847 38.4138 45.0898 38.7258L45.6638 38.1645V38.1645L45.0898 37.6032ZM46.4179 36.2452L45.0898 37.6032L45.6638 38.1645L46.9919 36.8065L46.4179 36.2452ZM47.5658 37.3679C47.9848 36.9395 48.6558 36.9395 49.0748 37.3679L49.6487 36.8065C48.9149 36.0562 47.7258 36.0562 46.9919 36.8065L47.5658 37.3679ZM46.5122 38.4451L47.5658 37.3679L46.9919 36.8065L45.9383 37.8838L46.5122 38.4451ZM49.7078 41.1512L46.5122 37.8838L45.9383 38.4451L49.1338 41.7125L49.7078 41.1512ZM50.175 40.0867L49.1338 41.1512L49.7078 41.7125L50.7489 40.648L50.175 40.0867ZM50.175 38.4928C50.6037 38.9311 50.6037 39.6483 50.175 40.0867L50.7489 40.648C51.4828 39.8976 51.4828 38.6818 50.7489 37.9314L50.175 38.4928ZM49.0748 37.3679L50.175 38.4928L50.7489 37.9314L49.6487 36.8065L49.0748 37.3679Z" fill="white"/>
<path id="Stroke 60" d="M30.0094 38.002C29.566 38.002 29.2066 38.3614 29.2066 38.8048H30.0094V38.002ZM42.5329 38.002H30.0094V38.8048H42.5329V38.002ZM43.3357 38.8048C43.3357 38.3614 42.9763 38.002 42.5329 38.002V38.8048H43.3357ZM42.5329 39.6076C42.9763 39.6076 43.3357 39.2482 43.3357 38.8048H42.5329V39.6076ZM30.0094 39.6076H42.5329V38.8048H30.0094V39.6076ZM29.2066 38.8048C29.2066 39.2482 29.566 39.6076 30.0094 39.6076V38.8048H29.2066ZM30.0094 41.8435C29.566 41.8435 29.2066 42.2029 29.2066 42.6462H30.0094V41.8435ZM41.2805 41.8435H30.0094V42.6462H41.2805V41.8435ZM42.0833 42.6462C42.0833 42.2029 41.7239 41.8435 41.2805 41.8435V42.6462H42.0833ZM41.2805 43.449C41.7239 43.449 42.0833 43.0896 42.0833 42.6462H41.2805V43.449ZM30.0094 43.449H41.2805V42.6462H30.0094V43.449ZM29.2066 42.6462C29.2066 43.0896 29.566 43.449 30.0094 43.449V42.6462H29.2066ZM30.0094 45.6849C29.566 45.6849 29.2066 46.0443 29.2066 46.4877H30.0094V45.6849ZM37.5235 45.6849H30.0094V46.4877H37.5235V45.6849ZM38.3263 46.4877C38.3263 46.0443 37.9669 45.6849 37.5235 45.6849V46.4877H38.3263ZM37.5235 47.2905C37.9669 47.2905 38.3263 46.931 38.3263 46.4877H37.5235V47.2905ZM30.0094 47.2905H37.5235V46.4877H30.0094V47.2905ZM29.2066 46.4877C29.2066 46.931 29.566 47.2905 30.0094 47.2905V46.4877H29.2066Z" fill="white"/>
</g>
<g id="Group 17">
<path id="Stroke 33" fill-rule="evenodd" clip-rule="evenodd" d="M32.3668 60.4321C32.3668 62.4044 30.7563 64.0041 28.7705 64.0041H3.59631C1.61055 64.0041 0 62.4044 0 60.4321V42.572C0 40.5997 1.61055 39 3.59631 39H28.7705C30.7563 39 32.3668 40.5997 32.3668 42.572V60.4321ZM10.7889 45.5487C10.7889 47.1924 9.44692 48.5254 7.79201 48.5254C6.13711 48.5254 4.79509 47.1924 4.79509 45.5487C4.79509 43.905 6.13711 42.572 7.79201 42.572C9.44692 42.572 10.7889 43.905 10.7889 45.5487Z" fill="#62E0D9"/>
<path id="Stroke 34" d="M26.7863 59.6556L19.7373 52.2009L16.8002 55.307L12.6883 50.9585L4.46439 59.6556" stroke="white" stroke-width="0.65" stroke-linecap="round" stroke-linejoin="round"/>
</g>
</g>
</svg>
