<svg width="166" height="27" viewBox="0 0 166 27" fill="none" xmlns="http://www.w3.org/2000/svg">
<g clip-path="url(#clip0_0_337)">
<g filter="url(#filter0_d_0_337)">
<path fill-rule="evenodd" clip-rule="evenodd" d="M160 19C163.314 19 166 16.3137 166 13C166 9.68629 163.314 7 160 7C156.686 7 154 9.68629 154 13C154 16.3137 156.686 19 160 19Z" fill="#62E0D9"/>
</g>
<path fill-rule="evenodd" clip-rule="evenodd" d="M160.582 11L160.219 11.35L161.671 12.75H157.333V13.25H161.671L160.219 14.65L160.582 15L162.656 13L160.582 11Z" fill="#1B2330"/>
<path d="M8.01562 13.9609C8.01562 14.9661 7.65104 15.75 6.92188 16.3125C6.19271 16.875 5.20312 17.1562 3.95312 17.1562C2.59896 17.1562 1.55729 16.9818 0.828125 16.6328V15.3516C1.29688 15.5495 1.80729 15.7057 2.35938 15.8203C2.91146 15.9349 3.45833 15.9922 4 15.9922C4.88542 15.9922 5.55208 15.8255 6 15.4922C6.44792 15.1536 6.67188 14.6849 6.67188 14.0859C6.67188 13.6901 6.59115 13.3672 6.42969 13.1172C6.27344 12.862 6.00781 12.6276 5.63281 12.4141C5.26302 12.2005 4.69792 11.9583 3.9375 11.6875C2.875 11.3073 2.11458 10.8568 1.65625 10.3359C1.20312 9.8151 0.976562 9.13542 0.976562 8.29688C0.976562 7.41667 1.30729 6.71615 1.96875 6.19531C2.63021 5.67448 3.50521 5.41406 4.59375 5.41406C5.72917 5.41406 6.77344 5.6224 7.72656 6.03906L7.3125 7.19531C6.36979 6.79948 5.45312 6.60156 4.5625 6.60156C3.85938 6.60156 3.3099 6.7526 2.91406 7.05469C2.51823 7.35677 2.32031 7.77604 2.32031 8.3125C2.32031 8.70833 2.39323 9.03385 2.53906 9.28906C2.6849 9.53906 2.92969 9.77083 3.27344 9.98438C3.6224 10.1927 4.15365 10.4245 4.86719 10.6797C6.0651 11.1068 6.88802 11.5651 7.33594 12.0547C7.78906 12.5443 8.01562 13.1797 8.01562 13.9609ZM13.7734 17.1562C12.5078 17.1562 11.5078 16.7708 10.7734 16C10.0443 15.2292 9.67969 14.1589 9.67969 12.7891C9.67969 11.4089 10.0182 10.3125 10.6953 9.5C11.3776 8.6875 12.2917 8.28125 13.4375 8.28125C14.5104 8.28125 15.3594 8.63542 15.9844 9.34375C16.6094 10.0469 16.9219 10.9766 16.9219 12.1328V12.9531H11.0234C11.0495 13.9583 11.3021 14.7214 11.7812 15.2422C12.2656 15.763 12.9453 16.0234 13.8203 16.0234C14.7422 16.0234 15.6536 15.8307 16.5547 15.4453V16.6016C16.0964 16.7995 15.6615 16.9401 15.25 17.0234C14.8438 17.112 14.3516 17.1562 13.7734 17.1562ZM13.4219 9.36719C12.7344 9.36719 12.1849 9.59115 11.7734 10.0391C11.3672 10.487 11.1276 11.1068 11.0547 11.8984H15.5312C15.5312 11.0807 15.349 10.4557 14.9844 10.0234C14.6198 9.58594 14.099 9.36719 13.4219 9.36719ZM22.7578 17.1562C21.4922 17.1562 20.4922 16.7708 19.7578 16C19.0286 15.2292 18.6641 14.1589 18.6641 12.7891C18.6641 11.4089 19.0026 10.3125 19.6797 9.5C20.362 8.6875 21.276 8.28125 22.4219 8.28125C23.4948 8.28125 24.3438 8.63542 24.9688 9.34375C25.5938 10.0469 25.9062 10.9766 25.9062 12.1328V12.9531H20.0078C20.0339 13.9583 20.2865 14.7214 20.7656 15.2422C21.25 15.763 21.9297 16.0234 22.8047 16.0234C23.7266 16.0234 24.638 15.8307 25.5391 15.4453V16.6016C25.0807 16.7995 24.6458 16.9401 24.2344 17.0234C23.8281 17.112 23.3359 17.1562 22.7578 17.1562ZM22.4062 9.36719C21.7188 9.36719 21.1693 9.59115 20.7578 10.0391C20.3516 10.487 20.112 11.1068 20.0391 11.8984H24.5156C24.5156 11.0807 24.3333 10.4557 23.9688 10.0234C23.6042 9.58594 23.0833 9.36719 22.4062 9.36719ZM38.1406 17V11.4609C38.1406 10.763 37.9818 10.2422 37.6641 9.89844C37.3464 9.55469 36.849 9.38281 36.1719 9.38281C35.2708 9.38281 34.612 9.6276 34.1953 10.1172C33.7839 10.6068 33.5781 11.4089 33.5781 12.5234V17H32.2812V4.84375H33.5781V8.52344C33.5781 8.96615 33.5573 9.33333 33.5156 9.625H33.5938C33.849 9.21354 34.2109 8.89062 34.6797 8.65625C35.1536 8.41667 35.6927 8.29688 36.2969 8.29688C37.3438 8.29688 38.1276 8.54688 38.6484 9.04688C39.1745 9.54167 39.4375 10.3307 39.4375 11.4141V17H38.1406ZM49.5 12.7109C49.5 14.1068 49.1484 15.1979 48.4453 15.9844C47.7422 16.7656 46.7708 17.1562 45.5312 17.1562C44.7656 17.1562 44.0859 16.9766 43.4922 16.6172C42.8984 16.2578 42.4401 15.7422 42.1172 15.0703C41.7943 14.3984 41.6328 13.612 41.6328 12.7109C41.6328 11.3151 41.9818 10.2292 42.6797 9.45312C43.3776 8.67188 44.3464 8.28125 45.5859 8.28125C46.7839 8.28125 47.7344 8.67969 48.4375 9.47656C49.1458 10.2734 49.5 11.3516 49.5 12.7109ZM42.9766 12.7109C42.9766 13.8047 43.1953 14.638 43.6328 15.2109C44.0703 15.7839 44.7135 16.0703 45.5625 16.0703C46.4115 16.0703 47.0547 15.7865 47.4922 15.2188C47.9349 14.6458 48.1562 13.8099 48.1562 12.7109C48.1562 11.6224 47.9349 10.7969 47.4922 10.2344C47.0547 9.66667 46.4062 9.38281 45.5469 9.38281C44.6979 9.38281 44.0573 9.66146 43.625 10.2188C43.1927 10.776 42.9766 11.6068 42.9766 12.7109ZM58.7734 17L57.2031 11.9766C57.1042 11.6693 56.9193 10.9714 56.6484 9.88281H56.5859C56.3776 10.7943 56.1953 11.4974 56.0391 11.9922L54.4219 17H52.9219L50.5859 8.4375H51.9453C52.4974 10.5885 52.9167 12.2266 53.2031 13.3516C53.4948 14.4766 53.6615 15.2344 53.7031 15.625H53.7656C53.8229 15.3281 53.9141 14.9453 54.0391 14.4766C54.1693 14.0026 54.2812 13.6276 54.375 13.3516L55.9453 8.4375H57.3516L58.8828 13.3516C59.1745 14.2474 59.3724 15 59.4766 15.6094H59.5391C59.5599 15.4219 59.6146 15.1328 59.7031 14.7422C59.7969 14.3516 60.3411 12.25 61.3359 8.4375H62.6797L60.3125 17H58.7734ZM69.9141 17H68.5859V5.57812H74.9531V6.75781H69.9141V10.9375H74.6484V12.1172H69.9141V17ZM75.2969 8.4375H76.6875L78.5625 13.3203C78.974 14.4349 79.2292 15.2396 79.3281 15.7344H79.3906C79.4583 15.4688 79.599 15.0156 79.8125 14.375C80.0312 13.7292 80.7396 11.75 81.9375 8.4375H83.3281L79.6484 18.1875C79.2839 19.151 78.8568 19.8333 78.3672 20.2344C77.8828 20.6406 77.2865 20.8438 76.5781 20.8438C76.1823 20.8438 75.7917 20.7995 75.4062 20.7109V19.6719C75.6927 19.7344 76.013 19.7656 76.3672 19.7656C77.2578 19.7656 77.8932 19.2656 78.2734 18.2656L78.75 17.0469L75.2969 8.4375ZM86.0156 17H84.7188V4.84375H86.0156V17ZM96.1562 12.7109C96.1562 14.1068 95.8047 15.1979 95.1016 15.9844C94.3984 16.7656 93.4271 17.1562 92.1875 17.1562C91.4219 17.1562 90.7422 16.9766 90.1484 16.6172C89.5547 16.2578 89.0964 15.7422 88.7734 15.0703C88.4505 14.3984 88.2891 13.612 88.2891 12.7109C88.2891 11.3151 88.638 10.2292 89.3359 9.45312C90.0339 8.67188 91.0026 8.28125 92.2422 8.28125C93.4401 8.28125 94.3906 8.67969 95.0938 9.47656C95.8021 10.2734 96.1562 11.3516 96.1562 12.7109ZM89.6328 12.7109C89.6328 13.8047 89.8516 14.638 90.2891 15.2109C90.7266 15.7839 91.3698 16.0703 92.2188 16.0703C93.0677 16.0703 93.7109 15.7865 94.1484 15.2188C94.5911 14.6458 94.8125 13.8099 94.8125 12.7109C94.8125 11.6224 94.5911 10.7969 94.1484 10.2344C93.7109 9.66667 93.0625 9.38281 92.2031 9.38281C91.3542 9.38281 90.7135 9.66146 90.2812 10.2188C89.849 10.776 89.6328 11.6068 89.6328 12.7109ZM109.586 17L108.016 11.9766C107.917 11.6693 107.732 10.9714 107.461 9.88281H107.398C107.19 10.7943 107.008 11.4974 106.852 11.9922L105.234 17H103.734L101.398 8.4375H102.758C103.31 10.5885 103.729 12.2266 104.016 13.3516C104.307 14.4766 104.474 15.2344 104.516 15.625H104.578C104.635 15.3281 104.727 14.9453 104.852 14.4766C104.982 14.0026 105.094 13.6276 105.188 13.3516L106.758 8.4375H108.164L109.695 13.3516C109.987 14.2474 110.185 15 110.289 15.6094H110.352C110.372 15.4219 110.427 15.1328 110.516 14.7422C110.609 14.3516 111.154 12.25 112.148 8.4375H113.492L111.125 17H109.586ZM122.438 12.7109C122.438 14.1068 122.086 15.1979 121.383 15.9844C120.68 16.7656 119.708 17.1562 118.469 17.1562C117.703 17.1562 117.023 16.9766 116.43 16.6172C115.836 16.2578 115.378 15.7422 115.055 15.0703C114.732 14.3984 114.57 13.612 114.57 12.7109C114.57 11.3151 114.919 10.2292 115.617 9.45312C116.315 8.67188 117.284 8.28125 118.523 8.28125C119.721 8.28125 120.672 8.67969 121.375 9.47656C122.083 10.2734 122.438 11.3516 122.438 12.7109ZM115.914 12.7109C115.914 13.8047 116.133 14.638 116.57 15.2109C117.008 15.7839 117.651 16.0703 118.5 16.0703C119.349 16.0703 119.992 15.7865 120.43 15.2188C120.872 14.6458 121.094 13.8099 121.094 12.7109C121.094 11.6224 120.872 10.7969 120.43 10.2344C119.992 9.66667 119.344 9.38281 118.484 9.38281C117.635 9.38281 116.995 9.66146 116.562 10.2188C116.13 10.776 115.914 11.6068 115.914 12.7109ZM128.625 8.28125C129.005 8.28125 129.346 8.3125 129.648 8.375L129.469 9.57812C129.115 9.5 128.802 9.46094 128.531 9.46094C127.839 9.46094 127.245 9.74219 126.75 10.3047C126.26 10.8672 126.016 11.5677 126.016 12.4062V17H124.719V8.4375H125.789L125.938 10.0234H126C126.318 9.46615 126.701 9.03646 127.148 8.73438C127.596 8.43229 128.089 8.28125 128.625 8.28125ZM132.531 12.6172C132.755 12.2995 133.096 11.8828 133.555 11.3672L136.32 8.4375H137.859L134.391 12.0859L138.102 17H136.531L133.508 12.9531L132.531 13.7969V17H131.25V4.84375H132.531V11.2891C132.531 11.5755 132.51 12.0182 132.469 12.6172H132.531ZM145.18 14.6641C145.18 15.4609 144.883 16.0755 144.289 16.5078C143.695 16.9401 142.862 17.1562 141.789 17.1562C140.654 17.1562 139.768 16.9766 139.133 16.6172V15.4141C139.544 15.6224 139.984 15.7865 140.453 15.9062C140.927 16.026 141.383 16.0859 141.82 16.0859C142.497 16.0859 143.018 15.9792 143.383 15.7656C143.747 15.5469 143.93 15.2161 143.93 14.7734C143.93 14.4401 143.784 14.1562 143.492 13.9219C143.206 13.6823 142.643 13.401 141.805 13.0781C141.008 12.7812 140.44 12.5234 140.102 12.3047C139.768 12.0807 139.518 11.8281 139.352 11.5469C139.19 11.2656 139.109 10.9297 139.109 10.5391C139.109 9.84115 139.393 9.29167 139.961 8.89062C140.529 8.48438 141.307 8.28125 142.297 8.28125C143.219 8.28125 144.12 8.46875 145 8.84375L144.539 9.89844C143.68 9.54427 142.901 9.36719 142.203 9.36719C141.589 9.36719 141.125 9.46354 140.812 9.65625C140.5 9.84896 140.344 10.1146 140.344 10.4531C140.344 10.6823 140.401 10.8776 140.516 11.0391C140.635 11.2005 140.826 11.3542 141.086 11.5C141.346 11.6458 141.846 11.8568 142.586 12.1328C143.602 12.5026 144.286 12.875 144.641 13.25C145 13.625 145.18 14.0964 145.18 14.6641Z" fill="#62E0D9"/>
<rect y="26" width="166" height="1" fill="#62E0D9"/>
</g>
<defs>
<filter id="filter0_d_0_337" x="152" y="5" width="16" height="16" filterUnits="userSpaceOnUse" color-interpolation-filters="sRGB">
<feFlood flood-opacity="0" result="BackgroundImageFix"/>
<feColorMatrix in="SourceAlpha" type="matrix" values="0 0 0 0 0 0 0 0 0 0 0 0 0 0 0 0 0 0 127 0" result="hardAlpha"/>
<feOffset/>
<feGaussianBlur stdDeviation="1"/>
<feColorMatrix type="matrix" values="0 0 0 0 0.384314 0 0 0 0 0.878431 0 0 0 0 0.85098 0 0 0 0.811141 0"/>
<feBlend mode="normal" in2="BackgroundImageFix" result="effect1_dropShadow_0_337"/>
<feBlend mode="normal" in="SourceGraphic" in2="effect1_dropShadow_0_337" result="shape"/>
</filter>
<clipPath id="clip0_0_337">
<rect width="166" height="27" fill="white"/>
</clipPath>
</defs>
</svg>
