<svg width="104" height="104" viewBox="0 0 104 104" fill="none" xmlns="http://www.w3.org/2000/svg">
<path d="M69.6353 23.7009L70.0944 23.2408V23.2408L69.6353 23.7009ZM68.717 23.701L69.1762 24.161V24.161L68.717 23.701ZM73.9452 28.0014L74.4043 27.5412V27.5412L73.9452 28.0014ZM74.1361 28.4614L74.7861 28.4613V28.4613L74.1361 28.4614ZM73.9453 28.9215L73.4861 28.4615L73.9453 28.9215ZM44.4952 58.3212L44.036 57.8612L44.4952 58.3212ZM39.2686 58.3209L39.7285 57.8616L39.7282 57.8612L39.2686 58.3209ZM39.2682 58.3205L39.7278 57.8608L39.7274 57.8604L39.2682 58.3205ZM26.1891 45.2637L25.7298 45.7237L25.7298 45.7237L26.1891 45.2637ZM26.1891 44.3437L25.7298 43.8837L25.7298 43.8837L26.1891 44.3437ZM30.4969 40.0432L30.0377 39.5832L30.4969 40.0432ZM31.4154 40.0432L31.8746 39.5832H31.8746L31.4154 40.0432ZM41.8811 50.4911L41.4219 50.9511C41.6756 51.2044 42.0866 51.2044 42.3403 50.9511L41.8811 50.4911ZM42.3403 51.8695L42.7995 52.3295L42.3403 51.8695ZM69.1763 25.0793L69.6354 24.6192C69.3817 24.366 68.9708 24.3661 68.7171 24.6193L69.1763 25.0793ZM41.4219 51.8695L40.9626 52.3295L41.4219 51.8695ZM30.9561 41.4217L31.4154 40.9617C31.1616 40.7083 30.7507 40.7083 30.4969 40.9617L30.9561 41.4217ZM27.5683 44.8037L27.1091 44.3437C26.987 44.4656 26.9183 44.6311 26.9183 44.8037C26.9183 44.9763 26.987 45.1418 27.1091 45.2637L27.5683 44.8037ZM40.1874 57.4012L39.7282 57.8612L39.7289 57.862L40.1874 57.4012ZM40.1882 57.402L40.6482 56.9428L40.6467 56.9413L40.1882 57.402ZM43.5768 57.4012L44.036 57.8612L43.5768 57.4012ZM72.5659 28.4616L73.0252 28.9216C73.1473 28.7997 73.2159 28.6341 73.2159 28.4615C73.2159 28.2889 73.1472 28.1234 73.025 28.0015L72.5659 28.4616ZM65.5125 27.8928L65.0349 28.3337L65.0349 28.3337L65.5125 27.8928ZM65.5529 27.9411L66.0709 27.5484L66.0709 27.5484L65.5529 27.9411ZM69.2494 32.8174L68.7314 33.21L68.7314 33.2101L69.2494 32.8174ZM69.2851 32.8696L68.7314 33.21V33.21L69.2851 32.8696ZM68.1942 33.5773L68.7482 33.2375C68.7371 33.2193 68.725 33.2017 68.7122 33.1847L68.1942 33.5773ZM64.536 28.7516L65.054 28.359C65.0412 28.3421 65.0276 28.3258 65.0132 28.3103L64.536 28.7516ZM61.182 32.1791L60.7007 32.616L60.7007 32.616L61.182 32.1791ZM61.2314 32.2407L60.7007 32.616L60.7007 32.616L61.2314 32.2407ZM64.7979 37.2853L64.2672 37.6606L64.2672 37.6606L64.7979 37.2853ZM64.8398 37.3529L64.2672 37.6605L64.2672 37.6606L64.8398 37.3529ZM63.7133 38.0031L64.2864 37.6963C64.2737 37.6726 64.2596 37.6498 64.244 37.6278L63.7133 38.0031ZM60.1929 33.0237L60.7237 32.6485C60.7083 32.6267 60.6915 32.6059 60.6735 32.5861L60.1929 33.0237ZM44.1966 28.3378C44.1966 27.6198 43.6146 27.0378 42.8966 27.0378V28.3378H44.1966ZM44.1966 30.3654V28.3378H42.8966V30.3654H44.1966ZM42.8966 31.6654C43.6146 31.6654 44.1966 31.0833 44.1966 30.3654H42.8966V30.3654V31.6654ZM41.5966 30.3654C41.5966 31.0833 42.1786 31.6654 42.8966 31.6654V30.3654V30.3654H41.5966ZM41.5966 28.3378V30.3654H42.8966V28.3378H41.5966ZM42.8966 27.0378C42.1786 27.0378 41.5966 27.6198 41.5966 28.3378H42.8966V27.0378ZM44.1966 68.8892C44.1966 68.1712 43.6146 67.5892 42.8966 67.5892V68.8892H44.1966ZM44.1966 70.9167V68.8892H42.8966V70.9167H44.1966ZM42.8966 72.2167C43.6146 72.2167 44.1966 71.6347 44.1966 70.9167H42.8966V72.2167ZM41.5966 70.9167C41.5966 71.6347 42.1786 72.2167 42.8966 72.2167V70.9167H41.5966ZM41.5966 68.8892V70.9167H42.8966V68.8892H41.5966ZM42.8966 67.5892C42.1786 67.5892 41.5966 68.1712 41.5966 68.8892H42.8966V67.5892ZM61.1759 49.3411C60.458 49.3411 59.8759 49.9231 59.8759 50.6411H61.1759V49.3411ZM63.207 49.3411H61.1759V50.6411H63.207V49.3411ZM64.507 50.6411C64.507 49.9231 63.9249 49.3411 63.207 49.3411V50.6411H64.507ZM63.207 51.9411C63.9249 51.9411 64.507 51.359 64.507 50.6411H63.207V51.9411ZM61.1759 51.9411H63.207V50.6411H61.1759V51.9411ZM59.8759 50.6411C59.8759 51.359 60.458 51.9411 61.1759 51.9411V50.6411H59.8759ZM20.5552 49.3411C19.8372 49.3411 19.2552 49.9231 19.2552 50.6411H20.5552V49.3411ZM22.5862 49.3411H20.5552V50.6411H22.5862V49.3411ZM23.8862 50.6411C23.8862 49.9231 23.3042 49.3411 22.5862 49.3411V50.6411H23.8862ZM22.5862 51.9411C23.3042 51.9411 23.8862 51.359 23.8862 50.6411H22.5862V51.9411ZM20.5552 51.9411H22.5862V50.6411H20.5552V51.9411ZM19.2552 50.6411C19.2552 51.359 19.8372 51.9411 20.5552 51.9411V50.6411H19.2552ZM70.0944 23.2408C69.5869 22.7343 68.7652 22.7344 68.2577 23.241L69.1762 24.161V24.161L70.0944 23.2408ZM74.4043 27.5412L70.0944 23.2408L69.1762 24.161L73.4861 28.4615L74.4043 27.5412ZM74.7861 28.4613C74.786 28.1161 74.6487 27.7851 74.4043 27.5412L73.4861 28.4615L73.4861 28.4615L74.7861 28.4613ZM74.4045 29.3815C74.6488 29.1376 74.7861 28.8066 74.7861 28.4613L73.4861 28.4615L73.4861 28.4615L74.4045 29.3815ZM44.9545 58.7813L74.4045 29.3815L73.4861 28.4615L44.036 57.8612L44.9545 58.7813ZM41.8811 60.0513C42.9898 60.0513 44.1048 59.6295 44.9545 58.7812L44.036 57.8612C43.441 58.4553 42.6611 58.7513 41.8811 58.7513V60.0513ZM38.8086 58.7802C39.6571 59.6298 40.773 60.0513 41.8811 60.0513V58.7513C41.1012 58.7513 40.3215 58.4554 39.7285 57.8616L38.8086 58.7802ZM38.8086 58.7801L38.809 58.7805L39.7282 57.8612L39.7278 57.8608L38.8086 58.7801ZM25.7298 45.7237L38.8089 58.7805L39.7274 57.8604L26.6483 44.8037L25.7298 45.7237ZM25.3483 44.8037C25.3483 45.1489 25.4856 45.4798 25.7298 45.7237L26.6483 44.8037L26.6483 44.8037H25.3483ZM25.7298 43.8837C25.4856 44.1275 25.3483 44.4585 25.3483 44.8037H26.6483L26.6483 44.8037L25.7298 43.8837ZM30.0377 39.5832L25.7298 43.8837L26.6483 44.8037L30.9561 40.5032L30.0377 39.5832ZM31.8746 39.5832C31.3671 39.0766 30.5452 39.0766 30.0377 39.5832L30.9561 40.5032L31.8746 39.5832ZM42.3403 50.031L31.8746 39.5832L30.9561 40.5032L41.4219 50.9511L42.3403 50.031ZM68.2577 23.241L41.4219 50.031L42.3403 50.9511L69.1762 24.161L68.2577 23.241ZM42.7995 52.3295L69.6355 25.5394L68.7171 24.6193L41.8811 51.4095L42.7995 52.3295ZM40.9626 52.3295C41.4701 52.8362 42.292 52.8362 42.7995 52.3295L41.8811 51.4095H41.8811L40.9626 52.3295ZM30.4969 41.8817L40.9626 52.3295L41.8811 51.4095L31.4154 40.9617L30.4969 41.8817ZM28.0276 45.2637L31.4154 41.8817L30.4969 40.9617L27.1091 44.3437L28.0276 45.2637ZM40.6466 56.9412L28.0276 44.3437L27.1091 45.2637L39.7282 57.8612L40.6466 56.9412ZM40.6467 56.9413L40.6459 56.9405L39.7289 57.862L39.7297 57.8627L40.6467 56.9413ZM41.8811 57.4513C41.4298 57.4513 40.986 57.2811 40.6482 56.9428L39.7282 57.8612C40.3212 58.4552 41.101 58.7513 41.8811 58.7513V57.4513ZM43.1176 56.9412C42.7769 57.2813 42.332 57.4513 41.8811 57.4513V58.7513C42.6611 58.7513 43.441 58.4552 44.036 57.8612L43.1176 56.9412ZM72.1067 28.0016L43.1176 56.9412L44.036 57.8612L73.0252 28.9216L72.1067 28.0016ZM68.7172 25.5395L72.1068 28.9217L73.025 28.0015L69.6354 24.6192L68.7172 25.5395ZM41.8811 16.9C23.7795 16.9 9.1 31.5512 9.1 49.6273H10.4C10.4 32.2713 24.4954 18.2 41.8811 18.2V16.9ZM65.9901 27.4519C60.0022 20.9655 51.4164 16.9 41.8811 16.9V18.2C51.039 18.2 59.283 22.103 65.0349 28.3337L65.9901 27.4519ZM66.0709 27.5484C66.0455 27.515 66.0186 27.4828 65.9901 27.4519L65.0349 28.3337L66.0709 27.5484ZM69.7674 32.4247L66.0709 27.5484L65.0349 28.3337L68.7314 33.21L69.7674 32.4247ZM69.8388 32.5292C69.8167 32.4932 69.7929 32.4583 69.7674 32.4247L68.7314 33.2101L68.7314 33.21L69.8388 32.5292ZM74.6622 49.6273C74.6622 43.3622 72.898 37.505 69.8388 32.5292L68.7314 33.21C71.6683 37.987 73.3622 43.6095 73.3622 49.6273H74.6622ZM41.8811 82.3546C59.9826 82.3546 74.6622 67.7033 74.6622 49.6273H73.3622C73.3622 66.9833 59.2668 81.0546 41.8811 81.0546V82.3546ZM9.1 49.6273C9.1 67.7033 23.7795 82.3546 41.8811 82.3546V81.0546C24.4954 81.0546 10.4 66.9833 10.4 49.6273H9.1ZM11.7 49.6273C11.7 32.9913 25.2113 19.5 41.8811 19.5V18.2C24.4954 18.2 10.4 32.2713 10.4 49.6273H11.7ZM41.8811 79.7546C25.2113 79.7546 11.7 66.2632 11.7 49.6273H10.4C10.4 66.9833 24.4954 81.0546 41.8811 81.0546V79.7546ZM72.0622 49.6273C72.0622 66.2632 58.5509 79.7546 41.8811 79.7546V81.0546C59.2668 81.0546 73.3622 66.9833 73.3622 49.6273H72.0622ZM67.6401 33.9172C70.4448 38.4896 72.0622 43.8677 72.0622 49.6273H73.3622C73.3622 43.621 71.6748 38.0085 68.7482 33.2375L67.6401 33.9172ZM64.0181 29.1443L67.6762 33.97L68.7122 33.1847L65.054 28.359L64.0181 29.1443ZM41.8811 19.5C50.6507 19.5 58.544 23.2312 64.0589 29.193L65.0132 28.3103C59.2623 22.0932 51.0275 18.2 41.8811 18.2V19.5ZM41.8811 22.9827C27.1429 22.9827 15.1931 34.9089 15.1931 49.6273H16.4931C16.4931 35.6289 27.8588 24.2827 41.8811 24.2827V22.9827ZM61.6633 31.7423C56.7821 26.3644 49.7246 22.9827 41.8811 22.9827V24.2827C49.3431 24.2827 56.0557 27.4984 60.7007 32.616L61.6633 31.7423ZM61.7622 31.8655C61.7318 31.8225 61.6987 31.7813 61.6632 31.7422L60.7007 32.616L60.7007 32.616L61.7622 31.8655ZM65.3287 36.9101L61.7622 31.8655L60.7007 32.616L64.2672 37.6606L65.3287 36.9101ZM65.4123 37.0453C65.3872 36.9985 65.3593 36.9534 65.3287 36.9101L64.2672 37.6606L64.2672 37.6605L65.4123 37.0453ZM68.569 49.6273C68.569 45.0782 67.4267 40.794 65.4123 37.0452L64.2672 37.6606C66.1824 41.225 67.2691 45.2984 67.2691 49.6273H68.569ZM41.8811 76.2719C56.6192 76.2719 68.569 64.3457 68.569 49.6273H67.2691C67.2691 63.6256 55.9034 74.9719 41.8811 74.9719V76.2719ZM15.1931 49.6273C15.1931 64.3457 27.1429 76.2719 41.8811 76.2719V74.9719C27.8588 74.9719 16.4931 63.6256 16.4931 49.6273H15.1931ZM17.7931 49.6273C17.7931 36.349 28.5747 25.5827 41.8811 25.5827V24.2827C27.8588 24.2827 16.4931 35.6289 16.4931 49.6273H17.7931ZM41.8811 73.6719C28.5747 73.6719 17.7931 62.9056 17.7931 49.6273H16.4931C16.4931 63.6256 27.8588 74.9719 41.8811 74.9719V73.6719ZM65.969 49.6273C65.969 62.9056 55.1875 73.6719 41.8811 73.6719V74.9719C55.9034 74.9719 67.269 63.6256 67.269 49.6273H65.969ZM63.1402 38.3098C64.9451 41.6818 65.969 45.5323 65.969 49.6273H67.269C67.269 45.3129 66.1897 41.2523 64.2864 37.6963L63.1402 38.3098ZM59.6622 33.399L63.1825 38.3783L64.244 37.6278L60.7237 32.6485L59.6622 33.399ZM41.8811 25.5827C48.9479 25.5827 55.3045 28.6205 59.7123 33.4613L60.6735 32.5861C56.0296 27.4859 49.3286 24.2827 41.8811 24.2827V25.5827Z" fill="#62E0D9"/>
<path fill-rule="evenodd" clip-rule="evenodd" d="M64.3676 57.4841C64.3676 59.9646 62.3528 61.9737 59.8703 61.9737C57.3878 61.9737 55.373 59.9646 55.373 57.4841C55.373 55.0036 57.3878 52.9945 59.8703 52.9945C62.3528 52.9945 64.3676 55.0036 64.3676 57.4841Z" stroke="#62E0D9" stroke-width="1.3" stroke-linejoin="round"/>
<path fill-rule="evenodd" clip-rule="evenodd" d="M59.8703 61.9738C57.9724 61.9738 56.2578 62.5574 55.0312 63.1276C53.8574 63.6764 53.1243 64.8684 53.1243 66.1614V73.1978C53.1243 74.4369 54.1317 75.4426 55.373 75.4426V84.4218C55.373 85.661 56.3792 86.6667 57.6216 86.6667H62.1189C63.3613 86.6667 64.3676 85.661 64.3676 84.4218V75.4426C65.6088 75.4426 66.6162 74.4369 66.6162 73.1978V66.1614C66.6162 64.8684 65.8832 63.6764 64.7094 63.1276C63.4827 62.5574 61.7681 61.9738 59.8703 61.9738Z" stroke="#62E0D9" stroke-width="1.3" stroke-linecap="round" stroke-linejoin="round"/>
<path fill-rule="evenodd" clip-rule="evenodd" d="M77.8595 57.4841C77.8595 59.9646 75.8458 61.9737 73.3622 61.9737C70.8785 61.9737 68.8649 59.9646 68.8649 57.4841C68.8649 55.0036 70.8785 52.9945 73.3622 52.9945C75.8458 52.9945 77.8595 55.0036 77.8595 57.4841Z" stroke="#62E0D9" stroke-width="1.3" stroke-linejoin="round"/>
<path fill-rule="evenodd" clip-rule="evenodd" d="M73.3622 61.9738C71.4643 61.9738 69.7497 62.5574 68.5231 63.1276C67.3493 63.6764 66.6162 64.8684 66.6162 66.1614V73.1978C66.6162 74.4369 67.6225 75.4426 68.8649 75.4426V84.4218C68.8649 85.661 69.8723 86.6667 71.1135 86.6667H75.6108C76.8532 86.6667 77.8595 85.661 77.8595 84.4218V75.4426C79.1018 75.4426 80.1081 74.4369 80.1081 73.1978V66.1614C80.1081 64.8684 79.375 63.6764 78.2013 63.1276C76.9746 62.5574 75.26 61.9738 73.3622 61.9738Z" stroke="#62E0D9" stroke-width="1.3" stroke-linecap="round" stroke-linejoin="round"/>
<path fill-rule="evenodd" clip-rule="evenodd" d="M91.3514 57.4841C91.3514 59.9646 89.3377 61.9737 86.8541 61.9737C84.3704 61.9737 82.3568 59.9646 82.3568 57.4841C82.3568 55.0036 84.3704 52.9945 86.8541 52.9945C89.3377 52.9945 91.3514 55.0036 91.3514 57.4841Z" stroke="#62E0D9" stroke-width="1.3" stroke-linejoin="round"/>
<path fill-rule="evenodd" clip-rule="evenodd" d="M86.8541 61.9738C84.9562 61.9738 83.2416 62.5574 82.015 63.1276C80.8412 63.6764 80.1081 64.8684 80.1081 66.1614V73.1978C80.1081 74.4369 81.1144 75.4426 82.3568 75.4426V84.4218C82.3568 85.661 83.3642 86.6667 84.6054 86.6667H89.1027C90.3451 86.6667 91.3514 85.661 91.3514 84.4218V75.4426C92.5937 75.4426 93.6 74.4369 93.6 73.1978V66.1614C93.6 64.8684 92.8669 63.6764 91.6931 63.1276C90.4665 62.5574 88.7519 61.9738 86.8541 61.9738Z" stroke="#62E0D9" stroke-width="1.3" stroke-linecap="round" stroke-linejoin="round"/>
</svg>
